<svg xmlns="http://www.w3.org/2000/svg" xmlns:xlink="http://www.w3.org/1999/xlink" width="400" zoomAndPan="magnify" viewBox="0 0 300 299.999988" height="400" preserveAspectRatio="xMidYMid meet" version="1.0"><path fill="#1877f2" d="M 300 150 C 300 67.15625 232.84375 0 150 0 C 67.15625 0 0 67.15625 0 150 C 0 224.871094 54.851562 286.925781 126.5625 298.179688 L 126.5625 193.359375 L 88.476562 193.359375 L 88.476562 150 L 126.5625 150 L 126.5625 116.953125 C 126.5625 79.359375 148.957031 58.59375 183.21875 58.59375 C 199.632812 58.59375 216.796875 61.523438 216.796875 61.523438 L 216.796875 98.4375 L 197.882812 98.4375 C 179.25 98.4375 173.4375 110 173.4375 121.863281 L 173.4375 150 L 215.039062 150 L 208.390625 193.359375 L 173.4375 193.359375 L 173.4375 298.179688 C 245.148438 286.925781 300 224.871094 300 150 " fill-opacity="1" fill-rule="nonzero"/><path fill="#ffffff" d="M 208.390625 193.359375 L 215.039062 150 L 173.4375 150 L 173.4375 121.863281 C 173.4375 110 179.25 98.4375 197.882812 98.4375 L 216.796875 98.4375 L 216.796875 61.523438 C 216.796875 61.523438 199.632812 58.59375 183.21875 58.59375 C 148.957031 58.59375 126.5625 79.359375 126.5625 116.953125 L 126.5625 150 L 88.476562 150 L 88.476562 193.359375 L 126.5625 193.359375 L 126.5625 298.179688 C 134.199219 299.375 142.027344 300 150 300 C 157.972656 300 165.800781 299.375 173.4375 298.179688 L 173.4375 193.359375 L 208.390625 193.359375 " fill-opacity="1" fill-rule="nonzero"/></svg>