<svg xmlns="http://www.w3.org/2000/svg" xmlns:xlink="http://www.w3.org/1999/xlink" width="300" zoomAndPan="magnify" viewBox="0 0 224.87999 225" height="300" preserveAspectRatio="xMidYMid meet" version="1.0"><defs><g/><clipPath id="7b83173772"><path d="M 2.84375 2.90625 L 224.726562 2.90625 L 224.726562 224.785156 L 2.84375 224.785156 Z M 2.84375 2.90625 " clip-rule="nonzero"/></clipPath><clipPath id="9be2b2c875"><path d="M 33.113281 78.769531 L 195.535156 78.769531 L 195.535156 146.230469 L 33.113281 146.230469 Z M 33.113281 78.769531 " clip-rule="nonzero"/></clipPath></defs><g clip-path="url(#7b83173772)"><path fill="#c2108a" d="M 224.878906 113.921875 C 224.878906 87.003906 215.246094 62.296875 199.25 43.054688 C 199.148438 42.890625 199.039062 42.730469 198.910156 42.578125 C 198.769531 42.40625 198.613281 42.25 198.449219 42.109375 C 178.070312 18.140625 147.714844 2.90625 113.863281 2.90625 C 80.011719 2.90625 49.652344 18.140625 29.273438 42.109375 C 29.109375 42.253906 28.953125 42.40625 28.8125 42.578125 C 28.683594 42.730469 28.574219 42.890625 28.472656 43.054688 C 12.476562 62.296875 2.84375 87.003906 2.84375 113.921875 C 2.84375 142.664062 13.824219 168.886719 31.804688 188.621094 C 31.84375 188.675781 31.878906 188.734375 31.917969 188.789062 C 32.136719 189.074219 32.386719 189.320312 32.652344 189.53125 C 52.933594 211.300781 81.832031 224.9375 113.863281 224.9375 C 145.886719 224.9375 174.78125 211.304688 195.0625 189.539062 C 195.335938 189.324219 195.585938 189.078125 195.804688 188.789062 C 195.847656 188.734375 195.878906 188.675781 195.917969 188.621094 C 213.902344 168.886719 224.878906 142.664062 224.878906 113.921875 Z M 180.34375 173.660156 C 187.832031 157.132812 192.074219 138.070312 192.589844 118.09375 L 216.449219 118.09375 C 215.492188 141.917969 206.382812 163.675781 191.835938 180.648438 C 188.222656 178.125 184.382812 175.789062 180.34375 173.660156 Z M 35.890625 180.648438 C 21.34375 163.675781 12.234375 141.917969 11.277344 118.09375 L 35.132812 118.09375 C 35.652344 138.070312 39.890625 157.132812 47.382812 173.660156 C 43.34375 175.789062 39.503906 178.125 35.890625 180.648438 Z M 32.703125 51.101562 C 36.601562 54.058594 40.785156 56.78125 45.21875 59.25 C 39.074219 74.554688 35.597656 91.785156 35.132812 109.753906 L 11.277344 109.753906 C 12.160156 87.71875 20.019531 67.449219 32.703125 51.101562 Z M 216.449219 109.753906 L 192.589844 109.753906 C 192.125 91.785156 188.648438 74.554688 182.507812 59.25 C 186.9375 56.78125 191.121094 54.058594 195.019531 51.101562 C 207.703125 67.449219 215.5625 87.71875 216.449219 109.753906 Z M 184.25 109.753906 L 150.1875 109.753906 C 150.039062 96.726562 149.199219 84.09375 147.722656 72.320312 C 157.386719 70.136719 166.578125 67.023438 175.042969 63.0625 C 180.492188 76.933594 183.78125 92.820312 184.25 109.753906 Z M 118.03125 215.128906 L 118.03125 166.414062 C 124.578125 166.597656 131.046875 167.214844 137.355469 168.242188 C 136.042969 175.449219 134.460938 182.175781 132.625 188.273438 C 128.496094 201.984375 123.179688 211.617188 118.03125 215.128906 Z M 95.097656 188.273438 C 93.261719 182.175781 91.679688 175.449219 90.371094 168.242188 C 96.675781 167.214844 103.144531 166.597656 109.691406 166.414062 L 109.691406 215.128906 C 104.546875 211.617188 99.230469 201.984375 95.097656 188.273438 Z M 109.691406 12.714844 L 109.691406 67.652344 C 102.769531 67.460938 95.960938 66.796875 89.347656 65.679688 C 90.828125 56.15625 92.753906 47.351562 95.097656 39.574219 C 99.230469 25.859375 104.546875 16.226562 109.691406 12.714844 Z M 132.625 39.574219 C 134.96875 47.351562 136.894531 56.15625 138.375 65.679688 C 131.761719 66.796875 124.953125 67.460938 118.03125 67.652344 L 118.03125 12.714844 C 123.179688 16.226562 128.496094 25.859375 132.625 39.574219 Z M 109.691406 75.996094 L 109.691406 109.753906 L 85.875 109.753906 C 86.019531 97.273438 86.8125 85.191406 88.199219 73.933594 C 95.195312 75.105469 102.390625 75.804688 109.691406 75.996094 Z M 109.691406 118.09375 L 109.691406 158.070312 C 102.695312 158.261719 95.777344 158.917969 89.023438 160.019531 C 87.125 147.070312 86.046875 132.859375 85.875 118.09375 Z M 118.03125 158.070312 L 118.03125 118.09375 L 141.847656 118.09375 C 141.675781 132.859375 140.597656 147.070312 138.699219 160.019531 C 131.945312 158.917969 125.027344 158.261719 118.03125 158.070312 Z M 118.03125 109.753906 L 118.03125 75.996094 C 125.335938 75.804688 132.527344 75.105469 139.523438 73.933594 C 140.910156 85.191406 141.703125 97.273438 141.847656 109.753906 Z M 146.558594 64.046875 C 145.023438 54.265625 143.03125 45.203125 140.609375 37.167969 C 137.699219 27.496094 134.320312 19.800781 130.558594 14.164062 C 147.492188 20.1875 162.046875 35.152344 171.726562 55.421875 C 163.9375 59.085938 155.472656 61.984375 146.558594 64.046875 Z M 97.167969 14.164062 C 93.40625 19.800781 90.027344 27.496094 87.113281 37.167969 C 84.691406 45.203125 82.699219 54.265625 81.167969 64.046875 C 72.253906 61.984375 63.785156 59.085938 56 55.421875 C 65.675781 35.152344 80.230469 20.1875 97.167969 14.164062 Z M 80 72.320312 C 78.523438 84.09375 77.683594 96.726562 77.535156 109.753906 L 43.476562 109.753906 C 43.941406 92.820312 47.230469 76.933594 52.679688 63.0625 C 61.148438 67.023438 70.339844 70.136719 80 72.320312 Z M 43.476562 118.09375 L 77.535156 118.09375 C 77.710938 133.386719 78.839844 148.136719 80.832031 161.589844 C 71.714844 163.605469 62.988281 166.4375 54.890625 170.023438 C 48.125 154.976562 44.003906 137.199219 43.476562 118.09375 Z M 82.183594 169.816406 C 83.546875 177.3125 85.199219 184.316406 87.113281 190.675781 C 90.027344 200.347656 93.40625 208.042969 97.167969 213.679688 C 81.679688 208.171875 68.179688 195.1875 58.582031 177.5 C 65.953125 174.261719 73.886719 171.675781 82.183594 169.816406 Z M 130.558594 213.679688 C 134.320312 208.042969 137.699219 200.347656 140.609375 190.675781 C 142.527344 184.316406 144.175781 177.3125 145.539062 169.816406 C 153.835938 171.675781 161.773438 174.261719 169.140625 177.5 C 159.546875 195.1875 146.046875 208.171875 130.558594 213.679688 Z M 146.894531 161.589844 C 148.882812 148.136719 150.015625 133.386719 150.1875 118.09375 L 184.25 118.09375 C 183.722656 137.199219 179.597656 154.976562 172.835938 170.023438 C 164.738281 166.4375 156.007812 163.605469 146.894531 161.589844 Z M 189.640625 44.714844 C 186.351562 47.191406 182.839844 49.488281 179.128906 51.59375 C 176.46875 46.066406 173.433594 40.835938 170.042969 35.980469 C 165.949219 30.117188 161.472656 24.984375 156.6875 20.613281 C 169.238281 26.398438 180.429688 34.636719 189.640625 44.714844 Z M 71.035156 20.613281 C 66.253906 24.984375 61.773438 30.117188 57.679688 35.980469 C 54.289062 40.835938 51.257812 46.066406 48.59375 51.59375 C 44.886719 49.488281 41.375 47.191406 38.082031 44.714844 C 47.296875 34.636719 58.488281 26.398438 71.035156 20.613281 Z M 41.625 186.816406 C 44.617188 184.78125 47.78125 182.886719 51.082031 181.132812 C 53.105469 184.875 55.304688 188.460938 57.679688 191.863281 C 61.773438 197.726562 66.253906 202.859375 71.035156 207.230469 C 60.054688 202.167969 50.113281 195.226562 41.625 186.816406 Z M 170.042969 191.863281 C 172.421875 188.460938 174.621094 184.875 176.640625 181.132812 C 179.945312 182.886719 183.105469 184.78125 186.097656 186.816406 C 177.613281 195.226562 167.671875 202.167969 156.6875 207.230469 C 161.472656 202.859375 165.949219 197.726562 170.042969 191.863281 Z M 170.042969 191.863281 " fill-opacity="1" fill-rule="nonzero"/></g><g clip-path="url(#9be2b2c875)"><path fill="#ffffff" d="M 33.113281 78.769531 L 195.449219 78.769531 L 195.449219 146.230469 L 33.113281 146.230469 Z M 33.113281 78.769531 " fill-opacity="1" fill-rule="nonzero"/></g><g fill="#c2108a" fill-opacity="1"><g transform="translate(64.633284, 124.417042)"><g><path d="M 32.359375 -22.109375 L 26.609375 0 L 20.09375 0 L 16.5625 -14.546875 L 12.90625 0 L 6.390625 0 L 0.78125 -22.109375 L 6.546875 -22.109375 L 9.734375 -6.015625 L 13.671875 -22.109375 L 19.578125 -22.109375 L 23.359375 -6.015625 L 26.578125 -22.109375 Z M 32.359375 -22.109375 "/></g></g></g><g fill="#c2108a" fill-opacity="1"><g transform="translate(97.753647, 124.417042)"><g><path d="M 32.359375 -22.109375 L 26.609375 0 L 20.09375 0 L 16.5625 -14.546875 L 12.90625 0 L 6.390625 0 L 0.78125 -22.109375 L 6.546875 -22.109375 L 9.734375 -6.015625 L 13.671875 -22.109375 L 19.578125 -22.109375 L 23.359375 -6.015625 L 26.578125 -22.109375 Z M 32.359375 -22.109375 "/></g></g></g><g fill="#c2108a" fill-opacity="1"><g transform="translate(130.87401, 124.417042)"><g><path d="M 32.359375 -22.109375 L 26.609375 0 L 20.09375 0 L 16.5625 -14.546875 L 12.90625 0 L 6.390625 0 L 0.78125 -22.109375 L 6.546875 -22.109375 L 9.734375 -6.015625 L 13.671875 -22.109375 L 19.578125 -22.109375 L 23.359375 -6.015625 L 26.578125 -22.109375 Z M 32.359375 -22.109375 "/></g></g></g></svg>