<svg xmlns="http://www.w3.org/2000/svg" xmlns:xlink="http://www.w3.org/1999/xlink" width="400" zoomAndPan="magnify" viewBox="0 0 300 299.999988" height="400" preserveAspectRatio="xMidYMid meet" version="1.0"><path fill="#25f4ee" d="M 120.773438 118.128906 L 120.773438 106.417969 C 116.75 105.871094 112.667969 105.53125 108.5 105.53125 C 58.296875 105.53125 17.449219 146.339844 17.449219 196.5 C 17.449219 227.277344 32.839844 254.511719 56.324219 270.976562 C 41.171875 254.722656 31.875 232.953125 31.875 209.039062 C 31.875 159.597656 71.5625 119.277344 120.777344 118.128906 Z M 120.773438 118.128906 " fill-opacity="1" fill-rule="nonzero"/><path fill="#25f4ee" d="M 122.917969 250.582031 C 145.320312 250.582031 163.59375 232.777344 164.421875 210.601562 L 164.503906 12.542969 L 200.71875 12.542969 C 199.964844 8.472656 199.550781 4.289062 199.550781 0 L 150.085938 0 L 150.003906 198.058594 C 149.175781 220.234375 130.902344 238.039062 108.5 238.039062 C 101.542969 238.039062 94.980469 236.300781 89.210938 233.269531 C 96.765625 243.734375 109.042969 250.582031 122.917969 250.582031 Z M 122.917969 250.582031 " fill-opacity="1" fill-rule="nonzero"/><path fill="#25f4ee" d="M 268.375 79.765625 L 268.375 68.757812 C 254.558594 68.757812 241.6875 64.65625 230.894531 57.617188 C 240.503906 68.644531 253.558594 76.597656 268.375 79.765625 Z M 268.375 79.765625 " fill-opacity="1" fill-rule="nonzero"/><path fill="#fe2c55" d="M 230.902344 57.617188 C 220.371094 45.542969 213.976562 29.777344 213.976562 12.535156 L 200.726562 12.535156 C 204.214844 31.363281 215.398438 47.519531 230.902344 57.617188 Z M 230.902344 57.617188 " fill-opacity="1" fill-rule="nonzero"/><path fill="#fe2c55" d="M 108.5 154.957031 C 85.574219 154.957031 66.914062 173.59375 66.914062 196.5 C 66.914062 212.453125 75.976562 226.316406 89.210938 233.269531 C 84.277344 226.433594 81.339844 218.082031 81.339844 209.039062 C 81.339844 186.132812 99.996094 167.492188 122.925781 167.492188 C 127.203125 167.492188 131.308594 168.199219 135.195312 169.410156 L 135.195312 118.957031 C 131.171875 118.40625 127.089844 118.066406 122.925781 118.066406 C 122.203125 118.066406 121.496094 118.105469 120.777344 118.121094 L 120.777344 156.867188 C 116.890625 155.65625 112.789062 154.949219 108.507812 154.949219 Z M 108.5 154.957031 " fill-opacity="1" fill-rule="nonzero"/><path fill="#fe2c55" d="M 268.375 79.765625 L 268.375 118.171875 C 242.726562 118.171875 218.957031 109.976562 199.550781 96.0625 L 199.550781 196.5 C 199.550781 246.664062 158.703125 287.464844 108.5 287.464844 C 89.097656 287.464844 71.109375 281.351562 56.316406 270.976562 C 72.949219 288.816406 96.644531 300 122.917969 300 C 173.128906 300 213.96875 259.191406 213.96875 209.039062 L 213.96875 108.609375 C 233.371094 122.523438 257.144531 130.71875 282.792969 130.71875 L 282.792969 81.292969 C 277.84375 81.292969 273.023438 80.757812 268.375 79.765625 Z M 268.375 79.765625 " fill-opacity="1" fill-rule="nonzero"/><path fill="#000000" d="M 199.550781 196.5 L 199.550781 96.0625 C 218.957031 109.976562 242.726562 118.171875 268.375 118.171875 L 268.375 79.765625 C 253.558594 76.597656 240.503906 68.652344 230.894531 57.617188 C 215.390625 47.519531 204.207031 31.371094 200.71875 12.535156 L 164.503906 12.535156 L 164.421875 210.59375 C 163.59375 232.769531 145.320312 250.574219 122.917969 250.574219 C 109.042969 250.574219 96.765625 243.726562 89.210938 233.261719 C 75.976562 226.300781 66.914062 212.4375 66.914062 196.492188 C 66.914062 173.585938 85.574219 154.949219 108.5 154.949219 C 112.78125 154.949219 116.886719 155.65625 120.773438 156.867188 L 120.773438 118.121094 C 71.554688 119.273438 31.867188 159.589844 31.867188 209.03125 C 31.867188 232.945312 41.164062 254.714844 56.316406 270.96875 C 71.101562 281.339844 89.097656 287.457031 108.5 287.457031 C 158.703125 287.457031 199.550781 246.648438 199.550781 196.492188 Z M 199.550781 196.5 " fill-opacity="1" fill-rule="nonzero"/></svg>