<svg xmlns="http://www.w3.org/2000/svg" xmlns:xlink="http://www.w3.org/1999/xlink" width="400" zoomAndPan="magnify" viewBox="0 0 300 299.999988" height="400" preserveAspectRatio="xMidYMid meet" version="1.0"><rect x="-30" width="360" fill="#ffffff" y="-29.999999" height="359.999986" fill-opacity="1"/><rect x="-30" width="360" fill="#ffffff" y="-29.999999" height="359.999986" fill-opacity="1"/><path fill="#000000" d="M 150 0 C 67.292969 0 0 67.292969 0 150 C 0 232.707031 67.292969 300 150 300 C 232.707031 300 300 232.707031 300 150 C 300 67.292969 232.707031 0 150 0 Z M 65.757812 250.507812 C 67.152344 205.199219 104.351562 168.75 150 168.75 C 195.648438 168.75 232.847656 205.199219 234.242188 250.507812 C 211.425781 269.664062 182.054688 281.25 150 281.25 C 117.945312 281.25 88.574219 269.664062 65.757812 250.507812 Z M 103.125 103.125 C 103.125 77.277344 124.152344 56.25 150 56.25 C 175.847656 56.25 196.875 77.277344 196.875 103.125 C 196.875 128.972656 175.847656 150 150 150 C 124.152344 150 103.125 128.972656 103.125 103.125 Z M 251.195312 233.484375 C 244.40625 198.441406 219.824219 169.753906 187.265625 157.070312 C 204.375 145.21875 215.625 125.464844 215.625 103.125 C 215.625 66.945312 186.179688 37.5 150 37.5 C 113.820312 37.5 84.375 66.945312 84.375 103.125 C 84.375 125.464844 95.625 145.21875 112.734375 157.078125 C 80.175781 169.761719 55.59375 198.449219 48.796875 233.492188 C 30.039062 210.789062 18.75 181.6875 18.75 150 C 18.75 77.625 77.625 18.75 150 18.75 C 222.375 18.75 281.25 77.625 281.25 150 C 281.25 181.6875 269.960938 210.789062 251.195312 233.484375 Z M 251.195312 233.484375 " fill-opacity="1" fill-rule="nonzero"/></svg>