<svg xmlns="http://www.w3.org/2000/svg" xmlns:xlink="http://www.w3.org/1999/xlink" width="400" zoomAndPan="magnify" viewBox="0 0 300 299.999988" height="400" preserveAspectRatio="xMidYMid meet" version="1.0"><defs><g/></defs><rect x="-30" width="360" fill="#ffffff" y="-29.999999" height="359.999986" fill-opacity="1"/><path stroke-linecap="butt" transform="matrix(0.75, 0, 0, 0.75, 0.000006, 0.000000000000042633)" fill="none" stroke-linejoin="miter" d="M -0.000008 -0.000000000000056843 L 400.000025 -0.000000000000056843 L 400.000025 400.000033 L -0.000008 400.000033 Z M -0.000008 -0.000000000000056843 " stroke="#000000" stroke-width="2" stroke-opacity="1" stroke-miterlimit="4"/><g fill="#000000" fill-opacity="1"><g transform="translate(48.444472, 114.763374)"><g><path d="M 50.609375 -52.171875 L 31 0 L 21.09375 0 L 1.421875 -52.171875 L 10.59375 -52.171875 L 26.046875 -8.78125 L 41.59375 -52.171875 Z M 50.609375 -52.171875 "/></g></g></g><g fill="#000000" fill-opacity="1"><g transform="translate(100.553353, 114.763374)"><g><path d="M 23.578125 0.671875 C 19.671875 0.671875 16.140625 -0.210938 12.984375 -1.984375 C 9.835938 -3.765625 7.363281 -6.269531 5.5625 -9.5 C 3.757812 -12.726562 2.859375 -16.46875 2.859375 -20.71875 C 2.859375 -24.925781 3.78125 -28.65625 5.625 -31.90625 C 7.476562 -35.15625 10.003906 -37.65625 13.203125 -39.40625 C 16.410156 -41.164062 19.992188 -42.046875 23.953125 -42.046875 C 27.898438 -42.046875 31.472656 -41.164062 34.671875 -39.40625 C 37.878906 -37.65625 40.410156 -35.15625 42.265625 -31.90625 C 44.117188 -28.65625 45.046875 -24.925781 45.046875 -20.71875 C 45.046875 -16.519531 44.09375 -12.789062 42.1875 -9.53125 C 40.289062 -6.28125 37.703125 -3.765625 34.421875 -1.984375 C 31.140625 -0.210938 27.523438 0.671875 23.578125 0.671875 Z M 23.578125 -6.75 C 25.773438 -6.75 27.835938 -7.273438 29.765625 -8.328125 C 31.691406 -9.378906 33.253906 -10.957031 34.453125 -13.0625 C 35.660156 -15.164062 36.265625 -17.71875 36.265625 -20.71875 C 36.265625 -23.71875 35.6875 -26.253906 34.53125 -28.328125 C 33.382812 -30.410156 31.859375 -31.976562 29.953125 -33.03125 C 28.054688 -34.082031 26.003906 -34.609375 23.796875 -34.609375 C 21.597656 -34.609375 19.554688 -34.082031 17.671875 -33.03125 C 15.796875 -31.976562 14.304688 -30.410156 13.203125 -28.328125 C 12.109375 -26.253906 11.5625 -23.71875 11.5625 -20.71875 C 11.5625 -16.269531 12.695312 -12.828125 14.96875 -10.390625 C 17.25 -7.960938 20.117188 -6.75 23.578125 -6.75 Z M 23.578125 -6.75 "/></g></g></g><g fill="#000000" fill-opacity="1"><g transform="translate(148.457487, 114.763374)"><g><path d="M 15.609375 -34.390625 L 15.609375 -11.484375 C 15.609375 -9.929688 15.972656 -8.816406 16.703125 -8.140625 C 17.429688 -7.460938 18.671875 -7.125 20.421875 -7.125 L 25.671875 -7.125 L 25.671875 0 L 18.921875 0 C 15.066406 0 12.113281 -0.898438 10.0625 -2.703125 C 8.007812 -4.503906 6.984375 -7.429688 6.984375 -11.484375 L 6.984375 -34.390625 L 2.109375 -34.390625 L 2.109375 -41.375 L 6.984375 -41.375 L 6.984375 -51.65625 L 15.609375 -51.65625 L 15.609375 -41.375 L 25.671875 -41.375 L 25.671875 -34.390625 Z M 15.609375 -34.390625 "/></g></g></g><g fill="#000000" fill-opacity="1"><g transform="translate(176.389074, 114.763374)"><g><path d="M 14.1875 -35.359375 C 15.4375 -37.460938 17.097656 -39.101562 19.171875 -40.28125 C 21.253906 -41.457031 23.722656 -42.046875 26.578125 -42.046875 L 26.578125 -33.1875 L 24.40625 -33.1875 C 21.050781 -33.1875 18.507812 -32.332031 16.78125 -30.625 C 15.050781 -28.925781 14.1875 -25.972656 14.1875 -21.765625 L 14.1875 0 L 5.625 0 L 5.625 -41.375 L 14.1875 -41.375 Z M 14.1875 -35.359375 "/></g></g></g><g fill="#000000" fill-opacity="1"><g transform="translate(205.221665, 114.763374)"><g><path d="M 43.546875 -21.703125 C 43.546875 -20.148438 43.445312 -18.75 43.25 -17.5 L 11.640625 -17.5 C 11.890625 -14.1875 13.113281 -11.53125 15.3125 -9.53125 C 17.519531 -7.53125 20.222656 -6.53125 23.421875 -6.53125 C 28.023438 -6.53125 31.28125 -8.457031 33.1875 -12.3125 L 42.421875 -12.3125 C 41.171875 -8.507812 38.90625 -5.394531 35.625 -2.96875 C 32.34375 -0.539062 28.273438 0.671875 23.421875 0.671875 C 19.472656 0.671875 15.929688 -0.210938 12.796875 -1.984375 C 9.671875 -3.765625 7.21875 -6.269531 5.4375 -9.5 C 3.664062 -12.726562 2.78125 -16.46875 2.78125 -20.71875 C 2.78125 -24.976562 3.640625 -28.71875 5.359375 -31.9375 C 7.085938 -35.164062 9.515625 -37.65625 12.640625 -39.40625 C 15.773438 -41.164062 19.367188 -42.046875 23.421875 -42.046875 C 27.328125 -42.046875 30.804688 -41.191406 33.859375 -39.484375 C 36.910156 -37.785156 39.285156 -35.394531 40.984375 -32.3125 C 42.691406 -29.238281 43.546875 -25.703125 43.546875 -21.703125 Z M 34.609375 -24.40625 C 34.554688 -27.550781 33.425781 -30.078125 31.21875 -31.984375 C 29.019531 -33.890625 26.296875 -34.84375 23.046875 -34.84375 C 20.097656 -34.84375 17.570312 -33.898438 15.46875 -32.015625 C 13.363281 -30.140625 12.113281 -27.601562 11.71875 -24.40625 Z M 34.609375 -24.40625 "/></g></g></g><g fill="#000000" fill-opacity="1"><g transform="translate(7.431196, 218.005375)"><g><path d="M 42.125 -36.640625 C 42.125 -33.984375 41.492188 -31.476562 40.234375 -29.125 C 38.984375 -26.78125 36.984375 -24.867188 34.234375 -23.390625 C 31.484375 -21.910156 27.957031 -21.171875 23.65625 -21.171875 L 14.1875 -21.171875 L 14.1875 0 L 5.625 0 L 5.625 -52.171875 L 23.65625 -52.171875 C 27.65625 -52.171875 31.039062 -51.484375 33.8125 -50.109375 C 36.59375 -48.734375 38.671875 -46.867188 40.046875 -44.515625 C 41.429688 -42.171875 42.125 -39.546875 42.125 -36.640625 Z M 23.65625 -28.15625 C 26.90625 -28.15625 29.328125 -28.890625 30.921875 -30.359375 C 32.523438 -31.835938 33.328125 -33.929688 33.328125 -36.640625 C 33.328125 -42.347656 30.101562 -45.203125 23.65625 -45.203125 L 14.1875 -45.203125 L 14.1875 -28.15625 Z M 23.65625 -28.15625 "/></g></g></g><g fill="#000000" fill-opacity="1"><g transform="translate(52.106678, 218.005375)"><g><path d="M 14.109375 -52.171875 L 14.109375 -18.921875 C 14.109375 -14.960938 15.144531 -11.984375 17.21875 -9.984375 C 19.300781 -7.984375 22.195312 -6.984375 25.90625 -6.984375 C 29.65625 -6.984375 32.566406 -7.984375 34.640625 -9.984375 C 36.722656 -11.984375 37.765625 -14.960938 37.765625 -18.921875 L 37.765625 -52.171875 L 46.328125 -52.171875 L 46.328125 -19.0625 C 46.328125 -14.8125 45.398438 -11.207031 43.546875 -8.25 C 41.691406 -5.300781 39.210938 -3.097656 36.109375 -1.640625 C 33.003906 -0.191406 29.578125 0.53125 25.828125 0.53125 C 22.078125 0.53125 18.660156 -0.191406 15.578125 -1.640625 C 12.503906 -3.097656 10.066406 -5.300781 8.265625 -8.25 C 6.460938 -11.207031 5.5625 -14.8125 5.5625 -19.0625 L 5.5625 -52.171875 Z M 14.109375 -52.171875 "/></g></g></g><g fill="#000000" fill-opacity="1"><g transform="translate(103.915241, 218.005375)"><g><path d="M 33.5625 -26.796875 C 36.363281 -26.296875 38.738281 -24.816406 40.6875 -22.359375 C 42.644531 -19.910156 43.625 -17.140625 43.625 -14.046875 C 43.625 -11.390625 42.929688 -8.992188 41.546875 -6.859375 C 40.171875 -4.734375 38.179688 -3.054688 35.578125 -1.828125 C 32.984375 -0.609375 29.957031 0 26.5 0 L 5.625 0 L 5.625 -52.171875 L 25.53125 -52.171875 C 29.082031 -52.171875 32.132812 -51.570312 34.6875 -50.375 C 37.238281 -49.175781 39.164062 -47.5625 40.46875 -45.53125 C 41.769531 -43.507812 42.421875 -41.242188 42.421875 -38.734375 C 42.421875 -35.734375 41.617188 -33.234375 40.015625 -31.234375 C 38.410156 -29.234375 36.257812 -27.753906 33.5625 -26.796875 Z M 14.1875 -30.25 L 24.78125 -30.25 C 27.582031 -30.25 29.769531 -30.882812 31.34375 -32.15625 C 32.914062 -33.4375 33.703125 -35.28125 33.703125 -37.6875 C 33.703125 -40.039062 32.914062 -41.878906 31.34375 -43.203125 C 29.769531 -44.535156 27.582031 -45.203125 24.78125 -45.203125 L 14.1875 -45.203125 Z M 25.75 -6.984375 C 28.65625 -6.984375 30.929688 -7.679688 32.578125 -9.078125 C 34.234375 -10.484375 35.0625 -12.4375 35.0625 -14.9375 C 35.0625 -17.488281 34.1875 -19.515625 32.4375 -21.015625 C 30.6875 -22.523438 28.359375 -23.28125 25.453125 -23.28125 L 14.1875 -23.28125 L 14.1875 -6.984375 Z M 25.75 -6.984375 "/></g></g></g><g fill="#000000" fill-opacity="1"><g transform="translate(151.21869, 218.005375)"><g/></g></g><g fill="#000000" fill-opacity="1"><g transform="translate(170.740736, 218.005375)"><g><path d="M 14.1875 -52.171875 L 14.1875 0 L 5.625 0 L 5.625 -52.171875 Z M 14.1875 -52.171875 "/></g></g></g><g fill="#000000" fill-opacity="1"><g transform="translate(190.563148, 218.005375)"><g><path d="M 2.78125 -26.203125 C 2.78125 -31.304688 3.96875 -35.882812 6.34375 -39.9375 C 8.71875 -43.988281 11.941406 -47.15625 16.015625 -49.4375 C 20.097656 -51.71875 24.570312 -52.859375 29.4375 -52.859375 C 34.988281 -52.859375 39.925781 -51.492188 44.25 -48.765625 C 48.582031 -46.035156 51.726562 -42.164062 53.6875 -37.15625 L 43.390625 -37.15625 C 42.046875 -39.914062 40.171875 -41.96875 37.765625 -43.3125 C 35.359375 -44.664062 32.582031 -45.34375 29.4375 -45.34375 C 25.976562 -45.34375 22.894531 -44.566406 20.1875 -43.015625 C 17.488281 -41.460938 15.375 -39.234375 13.84375 -36.328125 C 12.320312 -33.429688 11.5625 -30.054688 11.5625 -26.203125 C 11.5625 -22.347656 12.320312 -18.96875 13.84375 -16.0625 C 15.375 -13.164062 17.488281 -10.925781 20.1875 -9.34375 C 22.894531 -7.769531 25.976562 -6.984375 29.4375 -6.984375 C 32.582031 -6.984375 35.359375 -7.65625 37.765625 -9 C 40.171875 -10.351562 42.046875 -12.410156 43.390625 -15.171875 L 53.6875 -15.171875 C 51.726562 -10.160156 48.582031 -6.300781 44.25 -3.59375 C 39.925781 -0.894531 34.988281 0.453125 29.4375 0.453125 C 24.53125 0.453125 20.046875 -0.679688 15.984375 -2.953125 C 11.929688 -5.234375 8.71875 -8.398438 6.34375 -12.453125 C 3.96875 -16.515625 2.78125 -21.097656 2.78125 -26.203125 Z M 2.78125 -26.203125 "/></g></g></g><g fill="#000000" fill-opacity="1"><g transform="translate(248.603739, 218.005375)"><g><path d="M 14.1875 -52.171875 L 14.1875 0 L 5.625 0 L 5.625 -52.171875 Z M 14.1875 -52.171875 "/></g></g></g><g fill="#000000" fill-opacity="1"><g transform="translate(268.426151, 218.005375)"><g><path d="M 16.359375 -52.171875 L 15.390625 -15.765625 L 8.265625 -15.765625 L 7.28125 -52.171875 Z M 12.09375 0.53125 C 10.539062 0.53125 9.238281 0.00390625 8.1875 -1.046875 C 7.132812 -2.097656 6.609375 -3.398438 6.609375 -4.953125 C 6.609375 -6.503906 7.132812 -7.804688 8.1875 -8.859375 C 9.238281 -9.910156 10.539062 -10.4375 12.09375 -10.4375 C 13.59375 -10.4375 14.867188 -9.910156 15.921875 -8.859375 C 16.972656 -7.804688 17.5 -6.503906 17.5 -4.953125 C 17.5 -3.398438 16.972656 -2.097656 15.921875 -1.046875 C 14.867188 0.00390625 13.59375 0.53125 12.09375 0.53125 Z M 12.09375 0.53125 "/></g></g></g></svg>